<svg version="1.2" xmlns="http://www.w3.org/2000/svg" viewBox="0 0 32 22" width="32" height="22">
	<title>us1-svg</title>
	<style>
		.s0 { fill: #fbb03b } 
	</style>
	<path id="Path_189" fill-rule="evenodd" class="s0" d="m31.3 9.2q0 0.2 0 0.4 0.1 0.2 0.1 0.4 0 0.2 0 0.4v5.4q0 0.5-0.1 0.9-0.2 0.4-0.6 0.8-0.3 0.3-0.7 0.5-0.5 0.2-0.9 0.2h-0.8c-0.1 0.9-0.5 1.8-1.2 2.5-0.7 0.6-1.6 1-2.6 1-0.9 0-1.8-0.4-2.5-1-0.7-0.7-1.1-1.6-1.2-2.5h-9.3c0 0.9-0.5 1.8-1.1 2.5-0.7 0.6-1.7 1-2.6 1-1 0-1.9-0.4-2.6-1-0.7-0.7-1.1-1.6-1.1-2.5h-3.1c-0.3 0-0.5-0.1-0.7-0.3-0.2-0.2-0.3-0.5-0.3-0.7 0-0.3 0.1-0.6 0.3-0.8 0.2-0.2 0.4-0.3 0.7-0.3h3.6q0.2-0.4 0.6-0.7 0.3-0.4 0.7-0.6 0.5-0.2 0.9-0.4 0.5-0.1 1-0.1 0.5 0 0.9 0.1 0.5 0.1 0.9 0.4 0.5 0.2 0.8 0.6 0.3 0.3 0.6 0.7h10.3q0.3-0.4 0.6-0.7 0.4-0.4 0.8-0.6 0.4-0.2 0.9-0.4 0.5-0.1 0.9-0.1 0.5 0 1 0.1 0.5 0.1 0.9 0.4 0.4 0.2 0.8 0.6 0.3 0.3 0.6 0.7h1.2q0.1 0 0.1 0 0.1 0 0.1-0.1 0.1 0 0.1-0.1 0 0 0-0.1v-4.7h-6.7q-0.3 0-0.6-0.1-0.3-0.1-0.5-0.4-0.3-0.2-0.4-0.5-0.1-0.3-0.1-0.7v-7.4h-18.6q-0.2 0-0.4-0.1-0.2 0-0.3-0.2-0.2-0.1-0.3-0.3 0-0.2 0-0.4 0-0.2 0-0.4 0.1-0.2 0.2-0.3 0.2-0.1 0.4-0.2 0.2-0.1 0.4-0.1h19.2q0.3 0 0.5 0.1 0.3 0.1 0.5 0.3 0.2 0.3 0.4 0.5 0.1 0.3 0.1 0.6v1h2.7q0.6 0 1.1 0.2 0.6 0.1 1.1 0.5 0.5 0.3 0.8 0.7 0.4 0.5 0.6 1l1.7 3.9q0.1 0.2 0.2 0.4zm-22.9 10.4q0.3-0.2 0.6-0.4 0.2-0.2 0.3-0.6 0.2-0.3 0.2-0.6c0-0.7-0.4-1.3-1.1-1.6-0.6-0.2-1.3-0.1-1.8 0.4-0.5 0.5-0.7 1.2-0.4 1.9 0.3 0.6 0.9 1 1.6 1q0.3 0 0.6-0.1zm16.8 0q0.3-0.2 0.5-0.4 0.3-0.2 0.4-0.6 0.1-0.3 0.1-0.6c0-0.7-0.4-1.3-1-1.6-0.6-0.2-1.4-0.1-1.9 0.4-0.4 0.5-0.6 1.2-0.3 1.9 0.2 0.6 0.9 1 1.5 1q0.4 0 0.7-0.1zm-2.2-10.5h6l-1.5-3.4q-0.1-0.3-0.3-0.5-0.2-0.2-0.4-0.3-0.2-0.2-0.5-0.3-0.2 0-0.5 0h-2.8z"/>
</svg>