<svg version="1.2" xmlns="http://www.w3.org/2000/svg" viewBox="0 0 35 35" width="35" height="35">
	<title>us2-svg</title>
	<style>
		.s0 { fill: #000000 } 
	</style>
	<path id="Path_87" class="s0" d="m2.9 31.5c-0.4 0-0.7-0.3-0.7-0.6-0.1-0.3 0.1-0.7 0.4-0.8 0.3-0.1 0.7 0 0.9 0.3 0.2 0.3 0.1 0.6-0.1 0.9q-0.1 0-0.1 0.1-0.1 0-0.2 0 0 0.1-0.1 0.1-0.1 0-0.1 0z"/>
	<path id="Path_88" class="s0" d="m6.7 34.5h-6.7v-1.7h4.9v-8.9h-4.9v-1.7h6.7z"/>
	<path id="Path_89" fill-rule="evenodd" class="s0" d="m16.9 32.7h-9.1v-8.7l0.1-0.2q0.2-0.4 0.5-0.7 0.2-0.3 0.6-0.6 0.3-0.3 0.6-0.6 0.4-0.2 0.7-0.4 0.7-0.3 1.5-0.5 0.8-0.2 1.6-0.2 0.8 0 1.5 0.1 0.8 0.1 1.6 0.4 0.2 0.1 0.4 0.2 0.3 0.2 0.5 0.3 0.2 0.1 0.4 0.2 0.3 0.1 0.5 0.2 0.7 0.4 1.4 0.7 0.1 0.1 0.2 0.1 0.1 0 0.1 0 0.1 0 0.2 0.1 0.1 0 0.1 0 0.4 0 0.7 0.1 0.3 0.1 0.6 0.3 0.2 0.2 0.5 0.4 0.2 0.3 0.4 0.6 0 0.2 0.1 0.4 0.1 0.2 0.1 0.5 0 0.2 0 0.5 0 0.2 0 0.4h4.4l2.2-2.5c0.4-0.5 1-0.8 1.7-0.8 0.6 0 1.2 0.2 1.7 0.6 0.4 0.4 0.7 1 0.7 1.6 0.1 0.6-0.2 1.3-0.6 1.7l-3.4 3.8zm-7.3-1.7h7.2l11.8-1.9 3-3.4q0.1-0.2 0.1-0.4 0-0.3-0.2-0.4-0.2-0.2-0.4-0.2-0.3 0-0.5 0.2l-2.7 3.1-10.7 0.1v-1.7l3.8-0.1q0-0.1 0-0.3 0-0.1 0-0.3 0-0.1 0-0.3 0-0.1-0.1-0.3c-0.1-0.1-0.6-0.3-0.9-0.3q-0.2-0.1-0.3-0.1-0.1 0-0.2-0.1-0.1 0-0.2 0-0.1-0.1-0.2-0.1-0.8-0.4-1.6-0.8-0.2-0.1-0.4-0.2-0.2-0.1-0.4-0.2-0.2-0.1-0.4-0.2-0.2-0.1-0.4-0.2-0.6-0.2-1.2-0.3-0.6-0.1-1.2-0.1-0.6 0-1.2 0.1-0.6 0.2-1.1 0.4-0.3 0.1-0.5 0.3-0.2 0.1-0.4 0.3-0.2 0.2-0.4 0.4-0.2 0.2-0.3 0.4z"/>
	<path id="Path_90" fill-rule="evenodd" class="s0" d="m29.1 1.9l-7 3.6h6q0.7 0 1.3 0.3 0.6 0.4 0.9 1 0.4 0.6 0.3 1.3 0 0.7-0.3 1.3-0.2 0.2-0.4 0.4-0.2 0.2-0.4 0.4-0.2 0.1-0.5 0.2-0.2 0.1-0.5 0.2 0 0 0 0 0 0 0 0 0 0 0 0 0 0 0 0l-4 0.7q-0.4 0-0.7 0.4-0.2 0.3-0.2 0.7 0.1 0.4 0.4 0.7 0.4 0.2 0.8 0.2l1-0.1q1.5-0.2 2.7-0.2 0.9-0.1 1.8-0.1 0.4 0.1 0.9 0.1 0.4 0 0.9 0 0.4 0 0.8-0.1 0.4-0.1 0.8-0.2 0.4-0.1 0.8-0.3v1.8q-0.3 0.1-0.7 0.2-0.4 0.1-0.7 0.2-0.4 0.1-0.7 0.1-0.4 0-0.8 0-0.2 0-0.5 0-0.4 0-0.8 0v3.6h-21.1v-12.8h9.2l10.6-5.5 5.5 2v1.9zm-18.2 5.3v9.4h17.6v-1.9c-0.8 0-3.5 0.3-3.6 0.3q0 0 0 0-0.1 0-0.1 0 0 0-0.1 0 0 0 0 0c-0.7 0-1.4-0.3-1.9-0.7-0.5-0.5-0.8-1.1-0.9-1.8 0-0.7 0.2-1.4 0.6-1.9 0.4-0.6 1-0.9 1.7-1.1l4-0.7q0.1 0 0.1 0 0 0 0.1 0 0 0 0 0 0.1-0.1 0.1-0.1 0.2-0.1 0.3-0.3 0.1-0.2 0.1-0.4 0-0.2-0.1-0.4-0.1-0.2-0.3-0.3 0 0-0.1-0.1 0 0-0.1 0-0.1 0-0.1 0-0.1 0-0.1 0z"/>
	<path id="Rectangle_484" class="s0" d="m19 11h1.7v1.7h-1.7z"/>
</svg>