<svg version="1.2" xmlns="http://www.w3.org/2000/svg" viewBox="0 0 29 31" width="29" height="31">
	<title>us3-svg</title>
	<style>
		.s0 { fill: #fbb03b } 
	</style>
	<g id="noun_guarantee_2519048">
		<path id="Path_91" fill-rule="evenodd" class="s0" d="m28.5 4.1q0.2 0.1 0.3 0.2 0.1 0.2 0.1 0.3 0.1 0.2 0.1 0.4v11.7c0 10.1-13.4 13.7-14.2 13.9q-0.1 0-0.2 0 0 0-0.1 0-0.1 0-0.1 0-0.1 0-0.2 0c-0.5-0.2-14.2-3.7-14.2-13.9v-11.7q0-0.2 0.1-0.4 0-0.1 0.1-0.3 0.1-0.1 0.3-0.2 0.1-0.1 0.3-0.2l13.4-3.9q0.1 0 0.1 0 0.1 0 0.2 0 0.1 0 0.1 0 0.1 0 0.2 0l13.4 3.9q0.2 0.1 0.3 0.2zm-1.6 1.7l-12.4-3.6-12.4 3.6v10.9c0 7.9 10.6 11.2 12.4 11.7 1.8-0.5 12.4-3.9 12.4-11.7z"/>
		<path id="Path_92" class="s0" d="m13.4 8.6v1.1c-0.8 0.2-1.5 0.6-2 1.2-0.5 0.7-0.7 1.5-0.7 2.3 0.1 0.8 0.5 1.5 1.1 2.1 0.6 0.5 1.4 0.8 2.2 0.8h1.6c0.3 0 0.5 0.1 0.7 0.3 0.2 0.2 0.3 0.5 0.3 0.8 0 0.3-0.1 0.6-0.3 0.8-0.2 0.2-0.4 0.3-0.7 0.3h-3.2c-0.3 0-0.6 0.1-0.8 0.3-0.2 0.2-0.3 0.5-0.3 0.7 0 0.3 0.1 0.6 0.3 0.8 0.2 0.2 0.5 0.3 0.8 0.3h1v1.1c0 0.3 0.1 0.5 0.3 0.7 0.2 0.3 0.5 0.4 0.8 0.4 0.3 0 0.6-0.1 0.8-0.4 0.2-0.2 0.3-0.4 0.3-0.7v-1.1c0.8 0 1.6-0.3 2.3-0.9 0.6-0.6 0.9-1.5 0.9-2.3 0-0.9-0.3-1.7-0.9-2.3-0.7-0.6-1.5-0.9-2.3-0.9h-1.6c-0.3 0-0.6-0.1-0.8-0.3-0.2-0.3-0.3-0.5-0.3-0.8 0-0.3 0.1-0.6 0.3-0.8 0.2-0.2 0.5-0.3 0.8-0.3h3.2c0.3 0 0.5-0.1 0.7-0.3 0.2-0.2 0.4-0.5 0.4-0.8 0-0.2-0.2-0.5-0.4-0.7-0.2-0.2-0.4-0.3-0.7-0.3h-1.6v-1.1c0-0.3-0.1-0.6-0.3-0.8-0.2-0.2-0.5-0.3-0.8-0.3-0.3 0-0.6 0.1-0.8 0.3-0.2 0.2-0.3 0.5-0.3 0.8z"/>
	</g>
</svg>