<svg version="1.2" xmlns="http://www.w3.org/2000/svg" viewBox="0 0 35 35" width="35" height="35">
	<title>us4-svg</title>
	<style>
		.s0 { fill: #fbb03b } 
	</style>
	<path id="Path_111" fill-rule="evenodd" class="s0" d="m34.3 23.1h-11.2v11.6h-23.1v-23.2h11.1v-11.5h23.2zm-1.8-21.3h-3.2 0.1l-9.7 9.7h3.4v2.7l9.4-9.3c0 0 0-3.1 0-3.1zm-11.2 21.2c0 0 0-1.4 0-1.4q0 0-0.1 0-0.1-0.1-0.1-0.1-0.1-0.1-0.1-0.1-0.1-0.1-0.1-0.1-0.1-0.1-0.4-0.2c-3-1.5-3.5-4.4-3.9-6.7q-0.1-0.6-0.2-1.1h-2.6q-0.1 0.6-0.1 1.2 0 0.6 0.1 1.2 0.1 0.6 0.2 1.2 0.2 0.6 0.4 1.2 0.3 0.6 0.5 1.2 0.1 0.7 0.2 1.3 0.1 0.6 0.1 1.3 0 0.7-0.2 1.3 0 0.7-0.3 1.4-0.2 0.7-0.6 1.3-0.4 0.6-1 1.1-0.5 0.5-1.1 0.9-0.2 0.1-0.4 0.2-0.2 0.1-0.4 0.3-0.1 0.1-0.3 0.3-0.1 0.1-0.3 0.3-0.3 0.4-0.5 0.9-0.3 0.4-0.5 0.9-0.1 0.5-0.2 1-0.1 0.5-0.1 1h2.9q0.1-0.3 0.3-0.7 0.2-0.3 0.4-0.6 0.2-0.4 0.5-0.7 0.2-0.3 0.4-0.6 0.4-0.6 0.8-1.1 0.4-0.6 0.7-1.2 0.4-0.6 0.7-1.2 0.3-0.7 0.5-1.3c0.9-2.9 3.3-2.6 4.8-2.4zm-14.6 3.7q0 1.1-0.1 2.1-0.2 1-0.4 2-0.2 1-0.6 2h1.9q0-0.6 0.1-1.3 0.1-0.7 0.3-1.3 0.3-0.6 0.6-1.2 0.3-0.6 0.7-1.1 0.2-0.2 0.4-0.4 0.2-0.2 0.4-0.4 0.2-0.2 0.5-0.4 0.2-0.2 0.4-0.3 0.5-0.3 0.9-0.6 0.4-0.4 0.7-0.9 0.3-0.4 0.5-0.9 0.2-0.5 0.3-1.1 0.1-0.5 0.1-1 0-0.6-0.1-1.1 0-0.6-0.2-1.1-0.1-0.5-0.4-1-0.2-0.6-0.4-1.3-0.2-0.7-0.3-1.3-0.1-0.7-0.1-1.4 0-0.7 0.1-1.4h-1.9q0 0.8-0.1 1.6-0.1 0.8-0.4 1.6-0.3 0.8-0.6 1.5-0.4 0.8-0.9 1.4-0.2 0.3-0.4 0.6-0.2 0.3-0.3 0.6-0.2 0.3-0.3 0.6-0.1 0.4-0.2 0.7-0.1 0.3-0.2 0.7 0 0.3 0 0.7 0 0.3 0 0.7 0 0.3 0 0.6 0.1 1.1 0 2.1zm14.6-13.4h-3q0 0.4 0.1 0.8c0.4 2.2 0.7 4.3 2.9 5.4zm-8.4-1.8h4.3l9.7-9.7h-5.8l-8.2 8.1zm0-9.7v5.6l5.6-5.6zm-11.1 11.5v7.4q0.5-1.4 1.1-2.7 0.3-0.6 0.5-1.2 0.2-0.5 0.4-1.1 0.3-0.6 0.4-1.2 0.2-0.6 0.4-1.2zm0 19.5l1.9 0.1q0.4-1 0.6-2 0.3-1 0.4-2 0.1-1.1 0.2-2.1 0-1 0-2-0.1-0.5-0.1-0.9 0-0.4 0.1-0.8 0-0.4 0.1-0.8 0-0.4 0.1-0.8 0.1-0.4 0.3-0.8 0.1-0.4 0.3-0.8 0.2-0.4 0.4-0.8 0.2-0.3 0.5-0.7 0.4-0.5 0.7-1.1 0.3-0.6 0.6-1.3 0.2-0.6 0.3-1.3 0.1-0.7 0.1-1.4h-1.9q-0.1 0.7-0.3 1.4-0.2 0.7-0.5 1.3-0.2 0.7-0.5 1.4-0.2 0.6-0.5 1.3-0.5 1-0.9 2-0.4 1-0.8 2.1-0.3 1-0.6 2.1-0.3 1.1-0.5 2.2c0 0 0 5.7 0 5.7zm19.5 0v-7.9h-0.1c-1.8-0.3-2.6-0.3-3 1q-0.2 0.7-0.6 1.4-0.3 0.7-0.6 1.4-0.4 0.7-0.8 1.3-0.5 0.6-0.9 1.2c-0.4 0.5-0.8 1.1-1.1 1.6zm1.8-11.5h1.5l7.8-7.8v-6l-9.3 9.3zm9.3 0v-5.3l-5.2 5.3z"/>
</svg>